Title: 
Dormant Beauty Aka Bella Addormentata

Country: 
Italy/2012

Language:
Italian, French (some dialogues), Latin (a few lines)

Subtitle:
English, Italian

Director:
Marco Bellocchio

Writers:
Marco Bellocchio (story and screenplay)

Stars:
Toni Servillo, Isabelle Huppert and Alba Rohrwacher 

Storyline:
A mosaic of several intertwined stories questioning the meaning of life, love and hope, set during the last six days in the life of Eluana Englaro, a young woman who spent 17 years in a vegetative state. 

Trivia:
Won two prizes in Venice Film Festival/2012

Imdb: 
http://www.imdb.com/title/tt2184227/

Trailer:


Media Info:

General
Complete name                            : Dormant.Beauty.2012.DVDRip.XviD.AC3.HORiZON-ArtSubs
Format                                   : AVI
Format/Info                              : Audio Video Interleave
File size                                : 1.64 GiB
Duration                                 : 1h 50mn
Overall bit rate                         : 2 133 Kbps
Writing application                      : FairUse Wizard - http://fairusewizard.com
Writing library                          : The best and REALLY easy backup tool

Video
ID                                       : 0
Format                                   : MPEG-4 Visual
Format profile                           : Advanced Simple@L5
Format settings, BVOP                    : 1
Format settings, QPel                    : No
Format settings, GMC                     : No warppoints
Format settings, Matrix                  : Default (MPEG)
Muxing mode                              : Packed bitstream
Codec ID                                 : XVID
Codec ID/Hint                            : XviD
Duration                                 : 1h 50mn
Bit rate                                 : 1 995 Kbps
Width                                    : 712 pixels
Height                                   : 296 pixels
Display aspect ratio                     : 2.40:1
Frame rate                               : 25.000 fps
Color space                              : YUV
Chroma subsampling                       : 4:2:0
Bit depth                                : 8 bits
Scan type                                : Progressive
Compression mode                         : Lossy
Bits/(Pixel*Frame)                       : 0.379
Stream size                              : 1.54 GiB (94%)
Writing library                          : XviD 1.2.1 (UTC 2008-12-04)

Audio
ID                                       : 1
Format                                   : MPEG Audio
Format version                           : Version 1
Format profile                           : Layer 3
Mode                                     : Joint stereo
Mode extension                           : MS Stereo
Codec ID                                 : 55
Codec ID/Hint                            : MP3
Duration                                 : 1h 50mn
Bit rate mode                            : Constant
Bit rate                                 : 128 Kbps
Channel(s)                               : 2 channels
Sampling rate                            : 48.0 KHz
Compression mode                         : Lossy
Stream size                              : 101 MiB (6%)
Alignment                                : Aligned on interleaves
Interleave, duration                     : 40 ms (1.00 video frame)
Interleave, preload duration             : 504 ms
Writing library                          : LAME3.97 
Encoding settings                        : -m j -V 4 -q 2 -lowpass 17 -b 128

